<svg width="31" height="35" viewBox="0 0 31 35" fill="none" xmlns="http://www.w3.org/2000/svg">
<path d="M30.3681 9.49639L30.367 9.46915C30.3518 9.13296 30.3416 8.77728 30.3355 8.38154C30.3069 6.45173 28.7728 4.85544 26.8428 4.74756C22.8186 4.52299 19.7056 3.21081 17.0458 0.618237L17.0231 0.596607C16.1555 -0.198869 14.8468 -0.198869 13.9789 0.596607L13.9562 0.618237C11.2964 3.21081 8.18337 4.52299 4.15926 4.74783C2.22944 4.85544 0.695101 6.45173 0.666529 8.38181C0.660655 8.77488 0.650241 9.13056 0.63502 9.46915L0.633418 9.53244C0.555179 13.6359 0.457981 18.7428 2.16643 23.3781C3.10583 25.9272 4.52856 28.143 6.39481 29.9644C8.52036 32.0386 11.3044 33.6854 14.6695 34.8587C14.779 34.8969 14.8927 34.9279 15.0086 34.9511C15.172 34.9837 15.3365 35 15.501 35C15.6655 35 15.8303 34.9837 15.9934 34.9511C16.1093 34.9279 16.2239 34.8966 16.3339 34.8582C19.6949 33.6827 22.476 32.0352 24.5997 29.9612C26.4652 28.1392 27.8879 25.9229 28.8281 23.3733C30.543 18.7241 30.446 13.6076 30.3681 9.49639ZM15.5005 26.223C10.6908 26.223 6.778 22.3103 6.778 17.5006C6.778 12.6908 10.6908 8.77808 15.5005 8.77808C20.3099 8.77808 24.2229 12.6908 24.2229 17.5006C24.2229 22.3103 20.3099 26.223 15.5005 26.223Z" fill="white"/>
</svg>
